# xmcd
#
# Track frame offsets:
#	150
#	18196
#	27905
#	43228
#	64505
#	83146
#	93562
#	104750
#	115565
#	146363
#	158590
#	171862
#
# Disc length: 2601 seconds
#
# Revision: 1
# Processed by: cddbd v1.5.2PL0 Copyright (c) Steve Scherf et al.
# Submitted via: audiograbber 1.82.02
#
DISCID=910a270c
DTITLE=Eric Stanglin and The Juke Joint Heroes - Whistling Past The Graveyard
DYEAR=2012
DGENRE=Blues
TTITLE0=Tornado Alley Blues
TTITLE1=Get Your Hands Out Of My Pocket
TTITLE2=No Good Doney
TTITLE3=Going To Huntsville
TTITLE4=Mistreater
TTITLE5=What She Said
TTITLE6=Death Letter
TTITLE7=47 Years
TTITLE8=Halo
TTITLE9=I Got A Woman
TTITLE10=Honest Woman Blues
TTITLE11=Devil Got My Woman
EXTD=
EXTT0=
EXTT1=
EXTT2=
EXTT3=
EXTT4=
EXTT5=
EXTT6=
EXTT7=
EXTT8=
EXTT9=
EXTT10=
EXTT11=
PLAYORDER=
